<?xml version="1.0" encoding="UTF-8"?>
<svg id="Layer_2" data-name="Layer 2" xmlns="http://www.w3.org/2000/svg" viewBox="0 0 568.18 567.28">
  <defs>
    <style>
      .cls-1 {
        fill: #fff;
      }
    </style>
  </defs>
  <g id="Layer_1-2" data-name="Layer 1">
    <g>
      <path class="cls-1" d="m465.01,276.88c-.31.21-.37.29-.45.3-6.16.77-5.98.72-7.64-5.28-3.78-13.73-8.91-26.9-17.51-38.46-6.19-8.31-13.62-15.28-22.88-20.13-6.81-3.57-14.31-4.58-22.3-6.01.31,1.35.38,2.16.69,2.88,9.95,23.2,19.94,46.39,29.89,69.59,8.46,19.73,16.87,39.47,25.32,59.2,10.21,23.83,20.44,47.66,30.66,71.49,10.7,24.93,21.27,49.92,32.17,74.76,8.42,19.19,19.15,36.92,34.79,51.29,5.62,5.16,11.78,9.5,19.08,12.05.59.2,1.28,1.16,1.29,1.78.07,5.16.05,10.32-.1,15.47-.02.53-1.06,1.48-1.63,1.48-56.67-.01-113.34-.13-170.02-.17-32.78-.02-65.56.07-98.34.12-3.47,0-3.34,0-3.25-3.38.15-5.84.15-11.69.15-17.54,0-113.75,0-227.51,0-341.26,0-5.76-.09-11.52-.28-17.28-.06-1.8.37-2.38,2.26-2.38,43.65.1,87.29.14,130.94.17,3.62,0,7.25-.02,10.86-.2,1.94-.1,2.91.41,3.43,2.45,3.43,13.65,6.99,27.27,10.52,40.89,3.98,15.37,7.99,30.73,11.97,46.1.17.66.24,1.34.36,2.07Zm-80.09-35.79c-.23.03-.45.06-.68.08-.62,1.58-1.17,3.19-1.88,4.73-10.02,21.66-20.05,43.32-30.12,64.95-8,17.2-16.04,34.38-24.11,51.55-1.83,3.89-2.69,7.91-2.64,12.21.1,9.63-.02,19.26.1,28.88.02,2.02.32,4.17,1.07,6.02,4.67,11.53,9.09,23.2,14.38,34.45,8.85,18.81,18.32,37.31,30.45,54.34,10.88,15.27,22.67,29.6,37.96,40.81,16.37,12.01,34.46,16.33,54.43,12.94,2.78-.47,5.61-1.19,8.16-2.36,16.22-7.4,21.26-19.62,20.39-37.01-.74-14.84-5.35-28.94-11.49-42.53-4.6-10.16-8.84-20.49-13.12-30.79-8.41-20.21-16.67-40.48-25.11-60.67-11.82-28.27-23.75-56.49-35.62-84.75-6.75-16.07-13.45-32.15-20.18-48.23-.65-1.55-1.32-3.1-1.99-4.65Zm-59.24,67.71c16.05-33.83,31.82-67.09,47.64-100.42-16.08-2.75-31.99-.86-47.64-.2v100.63Zm.44,156.87c-.18.04-.36.09-.54.13,0,1.06,0,2.11,0,3.17-.04,26.62-.07,53.25-.15,79.87,0,1.48.25,2.21,1.94,2.2,12.9-.05,25.81-.03,38.77-.03-13.34-28.44-26.68-56.89-40.02-85.34Z"/>
      <path class="cls-1" d="m272.83,184.45c0,3.52,0,6.6,0,9.68-.03,120.27-.06,240.55-.07,360.82,0,2.57.34,5.14.5,7.71q.22,3.51-3.18,3.52c-1.47,0-2.93,0-4.4,0-87.29,0-174.57,0-261.86,0H0c0-5.96-.03-11.66.06-17.36,0-.45.81-1.11,1.37-1.29,10.46-3.44,18.15-10.74,25.45-18.43,12.29-12.96,20.88-28.35,27.99-44.55,10.45-23.82,20.64-47.76,30.88-71.68,10.27-23.99,20.43-48.03,30.71-72.02,6.12-14.28,12.44-28.48,18.57-42.76,10.74-25,21.4-50.04,32.11-75.05,2.22-5.18,4.49-10.34,6.94-15.99-1.24,0-2.06-.07-2.86.01-12.12,1.22-22.77,5.68-31.81,13.94-12.89,11.76-20.96,26.41-26.13,42.82-1.13,3.6-2.02,7.27-3.1,10.89-.17.56-.72,1.35-1.19,1.42-1.82.3-3.68.35-6,.53.56-3.11.87-5.73,1.53-8.25,3.74-14.36,7.59-28.7,11.36-43.06,3.31-12.62,6.59-25.24,9.79-37.89.53-2.1,1.44-2.9,3.71-2.9,35.62.04,71.24,0,106.86-.05,10.87-.01,21.73-.04,32.6-.07,1.19,0,2.38,0,3.98,0Zm-89.35,56.13c-.25,0-.5.02-.75.03-.64,1.57-1.26,3.15-1.92,4.71-6.65,15.92-13.3,31.83-19.96,47.75-8.77,20.98-17.56,41.95-26.31,62.94-5.38,12.91-10.67,25.86-16.07,38.76-9.41,22.49-18.98,44.9-28.26,67.44-4.04,9.83-8.04,19.72-11.12,29.87-3.07,10.09-5.19,20.47-3.06,31.22,1.84,9.32,5.82,17.14,14.11,22.41,5.8,3.69,12.19,5.4,18.92,6.34,14.67,2.04,28.32-1.19,41.05-8.23,13.22-7.31,24-17.69,33.38-29.31,7.65-9.48,14.82-19.44,21.29-29.76,14.84-23.65,26.46-48.92,36.04-75.12.75-2.05,1.42-4.26,1.47-6.42.21-10.31.32-20.63.19-30.94-.04-2.75-.59-5.7-1.71-8.21-5.02-11.2-10.34-22.26-15.52-33.38-11.75-25.22-23.48-50.44-35.2-75.67-2.23-4.79-4.37-9.62-6.55-14.43Zm58.92,67.86v-101.37h-47.9c16.06,33.99,31.87,67.45,47.9,101.37Zm-40.71,241.98c.85.09,1.84.28,2.82.27,11.89-.14,23.78-.35,35.66-.44,1.87-.01,2.3-.63,2.3-2.4.02-26.55.12-53.09.18-79.64,0-1.42-.16-2.84-.25-4.44-13.61,28.95-27.07,57.61-40.72,86.64Z"/>
      <path class="cls-1" d="m369.77,166.29c-1.32.21-2.71.61-4.09.61-50.18,0-100.37-.05-150.55-.08-6.12,0-12.24.04-18.37.06-.75,0-1.5,0-2.72,0C223.3,111.25,252.37,56,281.83,0c29.48,55.75,58.58,110.76,87.94,166.29Zm-79.48-23.51c.26.23.52.45.78.68,3.14-2,6.5-3.72,9.39-6.03,17.13-13.65,15.96-41.78-8.17-52.39-1.81-.79-2.49-.43-2.48,1.61.07,17.62.07,35.24.12,52.86,0,1.09.23,2.17.36,3.26Zm-17.44.69c0-4.68,0-8.7,0-12.72,0-14.18-.03-28.37.05-42.55.02-2.95-1.2-4.16-3.67-2.68-3.38,2.02-7.09,4-9.57,6.91-12.5,14.66-12.69,34.56,6,47.2,2.09,1.41,4.47,2.4,7.19,3.83Zm68.39,5.99c-5.97-11.59-11.71-22.72-17.47-33.89-1.23,14.04-7.04,25.74-20.12,33.89h37.58Zm-82.39-.11c-10.72-7.73-17.65-17.29-19.12-30.28-.23,0-.45,0-.68,0-5.1,9.91-10.21,19.81-15.6,30.28h35.4Zm31.65-96.6c-.15.46-.47.99-.46,1.52.06,5.91.12,11.82.35,17.72.02.51,1.14,1.19,1.87,1.43,2.1.69,4.3,1.09,6.39,1.83,1.3.46,2.46,1.31,3.68,1.99.16-.16.33-.32.49-.48-4.09-7.98-8.18-15.95-12.31-24Zm-17.65,3.86c-.18-.07-.37-.15-.56-.22-3.53,6.6-7.07,13.21-10.64,19.88,3.83-1.33,7.34-2.55,11.19-3.89v-15.77Z"/>
    </g>
  </g>
</svg>